<svg xmlns="http://www.w3.org/2000/svg" viewBox="0 0 160 160"><rect width="160" height="160" rx="34" fill="#dce979"/><g fill="none" stroke="#243b2e" stroke-linecap="round" stroke-linejoin="round"><path d="M109 34c-7 12-3 23 9 25-2 12 6 20 17 20-1 31-23 54-55 54-32 0-56-24-56-55 0-30 26-55 56-55 11 0 21 4 29 11Z" stroke-width="3"/><path d="M100 37a45 45 0 1 0 25 54M93 43a38 38 0 1 0 24 52" stroke-width="1.3"/><path d="m40 93 8 14m-11-23 14 25m-8-37 10 17m-2-34 8 13m-1-19 8 13m-2-18 7 12m-1-18 6 10m1-12 6 10m1-10 6 9m10 43 7 13m-16-7 8 13m-16-7 9 16m-17-9 8 14m-19-18 9 15m-23-1 8 12m-17-8 8 12m13-2 5 8m7-11 4 7" stroke-width="1"/><circle cx="60" cy="60" r="5" stroke-width="2"/><circle cx="49" cy="83" r="4" stroke-width="2"/><circle cx="72" cy="111" r="3" stroke-width="2"/><circle cx="105" cy="98" r="4" stroke-width="2"/><circle cx="93" cy="54" r="3" stroke-width="2"/><path d="M62 79 74 91l23-26" stroke-width="5"/><circle cx="128" cy="39" r="4" stroke-width="2"/><circle cx="137" cy="59" r="2" stroke-width="2"/></g></svg>
