<svg xmlns="http://www.w3.org/2000/svg" width="620" height="540" viewBox="0 0 620 540" fill="none">
  <g stroke="#ccd3dd" stroke-width="1">
    <path d="M46 62h528v424H46z"/>
    <path d="M30 62h16M574 62h16M30 486h16M574 486h16M46 46v16M574 46v16M46 486v16M574 486v16"/>
    <path d="M310 54v16M310 478v16M38 274h16M566 274h16"/>
  </g>

  <g font-family="Helvetica Neue, Helvetica, Arial, sans-serif">
    <g fill="#59677b" font-size="10" letter-spacing="1.6">
      <text x="46" y="35">PERMISSION FLOW</text>
      <text x="574" y="35" text-anchor="end">FIG. 01</text>
    </g>

    <path d="M92 148v108m0 36v108M110 132h34m-34 142h34m-34 142h34" stroke="#ccd3dd" stroke-width="1.2"/>
    <g fill="#f5f5f2" stroke="#315fe9" stroke-width="1.2">
      <circle cx="92" cy="132" r="18"/>
      <circle cx="92" cy="274" r="18"/>
      <circle cx="92" cy="416" r="18"/>
    </g>
    <g fill="#315fe9" font-size="11" font-weight="600" text-anchor="middle">
      <text x="92" y="136">01</text>
      <text x="92" y="278">02</text>
      <text x="92" y="420">03</text>
    </g>

    <g fill="#f5f5f2" stroke="#172b46" stroke-width="1.2">
      <rect x="144" y="84" width="390" height="96" rx="4"/>
      <rect x="144" y="226" width="390" height="96" rx="4"/>
      <rect x="144" y="368" width="390" height="96" rx="4"/>
    </g>
    <g stroke="#ccd3dd" stroke-width="1">
      <path d="M144 122h390M144 264h390M144 406h390"/>
    </g>
    <g fill="#172b46" font-size="15" font-weight="500">
      <text x="164" y="109">Your choice</text>
      <text x="164" y="251">Permission check</text>
      <text x="164" y="393">Script runs</text>
    </g>
    <g fill="#59677b" font-size="10" letter-spacing="1.2" text-anchor="end">
      <text x="514" y="108">PREFERENCES</text>
      <text x="514" y="250">CONSENT GATE</text>
      <text x="514" y="392">APPLICATION</text>
    </g>

    <text x="164" y="156" fill="#172b46" font-size="14">Analytics</text>
    <text x="420" y="155" fill="#315fe9" font-size="12" text-anchor="end">Allowed</text>
    <rect x="444" y="138" width="48" height="26" rx="13" fill="#315fe9"/>
    <circle cx="479" cy="151" r="9" fill="#f5f5f2"/>

    <text x="164" y="298" fill="#172b46" font-size="14">Analytics permission is granted</text>
    <rect x="438" y="280" width="76" height="26" rx="3" fill="#e1e9ff"/>
    <text x="476" y="297" fill="#315fe9" font-size="11" font-weight="600" text-anchor="middle">PASS</text>

    <text x="164" y="440" fill="#172b46" font-size="14">analytics.js</text>
    <rect x="438" y="422" width="76" height="26" rx="3" fill="#e1e9ff"/>
    <text x="476" y="439" fill="#315fe9" font-size="11" font-weight="600" text-anchor="middle">LOADED</text>

    <g stroke="#315fe9" stroke-width="1.2">
      <path d="M339 180v46m0 96v46"/>
      <circle cx="339" cy="203" r="3" fill="#f5f5f2"/>
      <circle cx="339" cy="345" r="3" fill="#f5f5f2"/>
    </g>
    <text x="310" y="517" fill="#59677b" font-size="11" text-anchor="middle">Only approved scripts continue.</text>
  </g>
</svg>
